<mxfile host="app.diagrams.net" agent="Mozilla/5.0 (Windows NT 10.0; Win64; x64) AppleWebKit/537.36 (KHTML, like Gecko) Chrome/137.0.0.0 Safari/537.36" version="27.1.4">
  <diagram name="Trang-1" id="cv6icjJXqkcYVCk2MBvI">
    <mxGraphModel dx="1303" dy="703" grid="1" gridSize="10" guides="1" tooltips="1" connect="1" arrows="1" fold="1" page="1" pageScale="1" pageWidth="827" pageHeight="1169" math="0" shadow="0">
      <root>
        <mxCell id="0" />
        <mxCell id="1" parent="0" />
        <object label="Admin" id="rcxc9e9lUHzk6Sx_kzkf-1">
          <mxCell style="shape=umlActor;verticalLabelPosition=bottom;verticalAlign=top;html=1;outlineConnect=0;" parent="1" vertex="1">
            <mxGeometry x="450" y="190" width="30" height="60" as="geometry" />
          </mxCell>
        </object>
        <mxCell id="rcxc9e9lUHzk6Sx_kzkf-2" value="" style="endArrow=none;dashed=1;html=1;rounded=0;entryX=0.5;entryY=0.5;entryDx=0;entryDy=0;entryPerimeter=0;" parent="1" edge="1">
          <mxGeometry width="50" height="50" relative="1" as="geometry">
            <mxPoint x="464.38" y="390.0000000000001" as="sourcePoint" />
            <mxPoint x="464.38" y="280.0000000000001" as="targetPoint" />
          </mxGeometry>
        </mxCell>
        <mxCell id="rcxc9e9lUHzk6Sx_kzkf-3" value="" style="shape=umlBoundary;whiteSpace=wrap;html=1;fillColor=light-dark(#FFFFCC,#FFFFCC);" parent="1" vertex="1">
          <mxGeometry x="619" y="170" width="100" height="80" as="geometry" />
        </mxCell>
        <mxCell id="rcxc9e9lUHzk6Sx_kzkf-4" value="" style="endArrow=none;dashed=1;html=1;rounded=0;entryX=0.572;entryY=1.003;entryDx=0;entryDy=0;entryPerimeter=0;" parent="1" edge="1">
          <mxGeometry width="50" height="50" relative="1" as="geometry">
            <mxPoint x="668.38" y="349.7600000000001" as="sourcePoint" />
            <mxPoint x="668.38" y="280.0000000000001" as="targetPoint" />
          </mxGeometry>
        </mxCell>
        <mxCell id="rcxc9e9lUHzk6Sx_kzkf-5" value="" style="ellipse;shape=umlControl;whiteSpace=wrap;html=1;fillColor=light-dark(#FFFFCC,#FFFFCC);" parent="1" vertex="1">
          <mxGeometry x="860" y="170" width="70" height="80" as="geometry" />
        </mxCell>
        <mxCell id="rcxc9e9lUHzk6Sx_kzkf-6" value="" style="endArrow=none;dashed=1;html=1;rounded=0;entryX=0.497;entryY=1.013;entryDx=0;entryDy=0;entryPerimeter=0;" parent="1" edge="1" source="rcxc9e9lUHzk6Sx_kzkf-17">
          <mxGeometry width="50" height="50" relative="1" as="geometry">
            <mxPoint x="894.37" y="368.96" as="sourcePoint" />
            <mxPoint x="894.37" y="280.00000000000006" as="targetPoint" />
          </mxGeometry>
        </mxCell>
        <mxCell id="rcxc9e9lUHzk6Sx_kzkf-7" value="" style="ellipse;shape=umlEntity;whiteSpace=wrap;html=1;fillColor=light-dark(#FFFFCC,#FFFFCC);" parent="1" vertex="1">
          <mxGeometry x="1070" y="170" width="80" height="80" as="geometry" />
        </mxCell>
        <mxCell id="rcxc9e9lUHzk6Sx_kzkf-9" value="" style="endArrow=none;dashed=1;html=1;rounded=0;entryX=0.5;entryY=1;entryDx=0;entryDy=0;exitX=0.934;exitY=1.003;exitDx=0;exitDy=0;exitPerimeter=0;" parent="1" edge="1" source="Ilj_b4vwO4gFpwfoiVtO-5">
          <mxGeometry width="50" height="50" relative="1" as="geometry">
            <mxPoint x="1110" y="810" as="sourcePoint" />
            <mxPoint x="1109.38" y="280.0000000000001" as="targetPoint" />
          </mxGeometry>
        </mxCell>
        <mxCell id="rcxc9e9lUHzk6Sx_kzkf-11" value="" style="endArrow=none;dashed=1;html=1;rounded=0;entryX=0.5;entryY=0.5;entryDx=0;entryDy=0;entryPerimeter=0;exitX=0.084;exitY=1.003;exitDx=0;exitDy=0;exitPerimeter=0;" parent="1" source="Ilj_b4vwO4gFpwfoiVtO-5" target="rcxc9e9lUHzk6Sx_kzkf-12" edge="1">
          <mxGeometry width="50" height="50" relative="1" as="geometry">
            <mxPoint x="465" y="1150" as="sourcePoint" />
            <mxPoint x="465" y="240" as="targetPoint" />
          </mxGeometry>
        </mxCell>
        <mxCell id="rcxc9e9lUHzk6Sx_kzkf-12" value="" style="html=1;points=[[0,0,0,0,5],[0,1,0,0,-5],[1,0,0,0,5],[1,1,0,0,-5]];perimeter=orthogonalPerimeter;outlineConnect=0;targetShapes=umlLifeline;portConstraint=eastwest;newEdgeStyle={&quot;curved&quot;:0,&quot;rounded&quot;:0};" parent="1" vertex="1">
          <mxGeometry x="460" y="320" width="10" height="320" as="geometry" />
        </mxCell>
        <mxCell id="rcxc9e9lUHzk6Sx_kzkf-13" value="" style="endArrow=none;dashed=1;html=1;rounded=0;entryX=0.572;entryY=1.003;entryDx=0;entryDy=0;entryPerimeter=0;" parent="1" target="rcxc9e9lUHzk6Sx_kzkf-14" edge="1">
          <mxGeometry width="50" height="50" relative="1" as="geometry">
            <mxPoint x="669.72" y="500" as="sourcePoint" />
            <mxPoint x="621" y="270" as="targetPoint" />
            <Array as="points">
              <mxPoint x="670" y="660" />
            </Array>
          </mxGeometry>
        </mxCell>
        <mxCell id="rcxc9e9lUHzk6Sx_kzkf-14" value="" style="html=1;points=[[0,0,0,0,5],[0,1,0,0,-5],[1,0,0,0,5],[1,1,0,0,-5]];perimeter=orthogonalPerimeter;outlineConnect=0;targetShapes=umlLifeline;portConstraint=eastwest;newEdgeStyle={&quot;curved&quot;:0,&quot;rounded&quot;:0};" parent="1" vertex="1">
          <mxGeometry x="664" y="320" width="10" height="320" as="geometry" />
        </mxCell>
        <mxCell id="rcxc9e9lUHzk6Sx_kzkf-16" value="" style="endArrow=none;dashed=1;html=1;rounded=0;entryX=0.497;entryY=1.013;entryDx=0;entryDy=0;entryPerimeter=0;exitX=0.651;exitY=1.005;exitDx=0;exitDy=0;exitPerimeter=0;" parent="1" target="rcxc9e9lUHzk6Sx_kzkf-17" edge="1" source="Ilj_b4vwO4gFpwfoiVtO-5">
          <mxGeometry width="50" height="50" relative="1" as="geometry">
            <mxPoint x="895" y="1160" as="sourcePoint" />
            <mxPoint x="895" y="271" as="targetPoint" />
          </mxGeometry>
        </mxCell>
        <mxCell id="rcxc9e9lUHzk6Sx_kzkf-17" value="" style="html=1;points=[[0,0,0,0,5],[0,1,0,0,-5],[1,0,0,0,5],[1,1,0,0,-5]];perimeter=orthogonalPerimeter;outlineConnect=0;targetShapes=umlLifeline;portConstraint=eastwest;newEdgeStyle={&quot;curved&quot;:0,&quot;rounded&quot;:0};" parent="1" vertex="1">
          <mxGeometry x="890" y="510" width="10" height="100" as="geometry" />
        </mxCell>
        <mxCell id="rcxc9e9lUHzk6Sx_kzkf-28" value="&lt;font style=&quot;vertical-align: inherit;&quot;&gt;&lt;font style=&quot;vertical-align: inherit;&quot;&gt;Chọn1 người dùng trong danh sách&lt;/font&gt;&lt;/font&gt;" style="html=1;verticalAlign=bottom;endArrow=block;curved=0;rounded=0;" parent="1" edge="1">
          <mxGeometry width="80" relative="1" as="geometry">
            <mxPoint x="470" y="350" as="sourcePoint" />
            <mxPoint x="664" y="350" as="targetPoint" />
          </mxGeometry>
        </mxCell>
        <mxCell id="rcxc9e9lUHzk6Sx_kzkf-30" value="&lt;font style=&quot;vertical-align: inherit;&quot;&gt;&lt;font style=&quot;vertical-align: inherit;&quot;&gt;Hiển thị các chức năng&amp;nbsp;&lt;/font&gt;&lt;/font&gt;&lt;div&gt;&lt;font style=&quot;vertical-align: inherit;&quot;&gt;&lt;font style=&quot;vertical-align: inherit;&quot;&gt;thao tác với người dùng&lt;/font&gt;&lt;/font&gt;&lt;/div&gt;" style="html=1;verticalAlign=bottom;endArrow=open;dashed=1;endSize=8;curved=0;rounded=0;" parent="1" edge="1">
          <mxGeometry relative="1" as="geometry">
            <mxPoint x="664" y="390" as="sourcePoint" />
            <mxPoint x="470" y="390" as="targetPoint" />
          </mxGeometry>
        </mxCell>
        <mxCell id="rcxc9e9lUHzk6Sx_kzkf-31" value="Chọn chức năng&lt;div&gt;&amp;nbsp;&quot;Chỉnh sửa quyền người dùng&quot;&lt;/div&gt;" style="html=1;verticalAlign=bottom;endArrow=block;curved=0;rounded=0;" parent="1" edge="1">
          <mxGeometry width="80" relative="1" as="geometry">
            <mxPoint x="470" y="430" as="sourcePoint" />
            <mxPoint x="664" y="430" as="targetPoint" />
          </mxGeometry>
        </mxCell>
        <mxCell id="rcxc9e9lUHzk6Sx_kzkf-57" value="Hiển thị danh sách các quyền" style="html=1;verticalAlign=bottom;endArrow=open;dashed=1;endSize=8;curved=0;rounded=0;" parent="1" edge="1" source="rcxc9e9lUHzk6Sx_kzkf-14">
          <mxGeometry relative="1" as="geometry">
            <mxPoint x="650" y="460" as="sourcePoint" />
            <mxPoint x="470" y="460" as="targetPoint" />
          </mxGeometry>
        </mxCell>
        <mxCell id="rcxc9e9lUHzk6Sx_kzkf-60" value="Chọn 1 trong các quyền" style="html=1;verticalAlign=bottom;endArrow=block;curved=0;rounded=0;" parent="1" edge="1">
          <mxGeometry width="80" relative="1" as="geometry">
            <mxPoint x="470" y="490" as="sourcePoint" />
            <mxPoint x="664" y="490" as="targetPoint" />
          </mxGeometry>
        </mxCell>
        <mxCell id="pKXvgeJF0G7MHsCE2nNq-1" value="Yêu cầu thay đổi quyền&lt;div&gt;(newRole)&lt;/div&gt;" style="html=1;verticalAlign=bottom;endArrow=block;curved=0;rounded=0;fontSize=12;startSize=8;endSize=8;" parent="1" edge="1">
          <mxGeometry width="80" relative="1" as="geometry">
            <mxPoint x="674" y="519.38" as="sourcePoint" />
            <mxPoint x="890.0000000000002" y="519.38" as="targetPoint" />
          </mxGeometry>
        </mxCell>
        <mxCell id="pKXvgeJF0G7MHsCE2nNq-4" value="Cập nhật quyền&lt;div&gt;(userId,newRole)&lt;/div&gt;" style="html=1;verticalAlign=bottom;endArrow=block;curved=0;rounded=0;fontSize=12;startSize=8;endSize=8;" parent="1" edge="1">
          <mxGeometry width="80" relative="1" as="geometry">
            <mxPoint x="900" y="539.37" as="sourcePoint" />
            <mxPoint x="1105" y="539.37" as="targetPoint" />
          </mxGeometry>
        </mxCell>
        <mxCell id="pKXvgeJF0G7MHsCE2nNq-11" value="" style="html=1;points=[[0,0,0,0,5],[0,1,0,0,-5],[1,0,0,0,5],[1,1,0,0,-5]];perimeter=orthogonalPerimeter;outlineConnect=0;targetShapes=umlLifeline;portConstraint=eastwest;newEdgeStyle={&quot;curved&quot;:0,&quot;rounded&quot;:0};" parent="1" vertex="1">
          <mxGeometry x="1105" y="525" width="10" height="60" as="geometry" />
        </mxCell>
        <mxCell id="Ilj_b4vwO4gFpwfoiVtO-1" value="V_UserManagement" style="text;html=1;align=center;verticalAlign=middle;resizable=0;points=[];autosize=1;strokeColor=none;fillColor=none;" parent="1" vertex="1">
          <mxGeometry x="604" y="250" width="130" height="30" as="geometry" />
        </mxCell>
        <mxCell id="Ilj_b4vwO4gFpwfoiVtO-2" value="&lt;span style=&quot;text-wrap-mode: wrap;&quot;&gt;AccountController&lt;/span&gt;" style="text;html=1;align=center;verticalAlign=middle;resizable=0;points=[];autosize=1;strokeColor=none;fillColor=none;" parent="1" vertex="1">
          <mxGeometry x="835" y="250" width="120" height="30" as="geometry" />
        </mxCell>
        <mxCell id="Ilj_b4vwO4gFpwfoiVtO-3" value="&lt;span style=&quot;text-wrap-mode: wrap;&quot;&gt;Account&lt;/span&gt;" style="text;html=1;align=center;verticalAlign=middle;resizable=0;points=[];autosize=1;strokeColor=none;fillColor=none;" parent="1" vertex="1">
          <mxGeometry x="1075" y="250" width="70" height="30" as="geometry" />
        </mxCell>
        <mxCell id="Ilj_b4vwO4gFpwfoiVtO-5" value="Chỉnh sửa quyền người dùng" style="shape=umlFrame;whiteSpace=wrap;html=1;pointerEvents=0;width=120;height=40;" parent="1" vertex="1">
          <mxGeometry x="400" y="140" width="760" height="520" as="geometry" />
        </mxCell>
        <mxCell id="9S_j7sFK2VEOikQMcJuU-1" value="Kết quả quá trình cập nhật quyền" style="html=1;verticalAlign=bottom;endArrow=open;dashed=1;endSize=8;curved=0;rounded=0;" edge="1" parent="1" target="rcxc9e9lUHzk6Sx_kzkf-17">
          <mxGeometry relative="1" as="geometry">
            <mxPoint x="1105" y="583" as="sourcePoint" />
            <mxPoint x="1025" y="583" as="targetPoint" />
          </mxGeometry>
        </mxCell>
        <mxCell id="9S_j7sFK2VEOikQMcJuU-2" value="Kết quả quá trình cập nhật quyền" style="html=1;verticalAlign=bottom;endArrow=open;dashed=1;endSize=8;curved=0;rounded=0;" edge="1" parent="1">
          <mxGeometry relative="1" as="geometry">
            <mxPoint x="890" y="600" as="sourcePoint" />
            <mxPoint x="674" y="600" as="targetPoint" />
          </mxGeometry>
        </mxCell>
        <mxCell id="9S_j7sFK2VEOikQMcJuU-3" value="Hiển thị kết quả quá trình&amp;nbsp;&lt;div&gt;cập nhật quyền&lt;/div&gt;" style="html=1;verticalAlign=bottom;endArrow=open;dashed=1;endSize=8;curved=0;rounded=0;" edge="1" parent="1" target="rcxc9e9lUHzk6Sx_kzkf-12">
          <mxGeometry relative="1" as="geometry">
            <mxPoint x="664" y="620" as="sourcePoint" />
            <mxPoint x="584" y="620" as="targetPoint" />
          </mxGeometry>
        </mxCell>
      </root>
    </mxGraphModel>
  </diagram>
</mxfile>
